<svg xmlns="http://www.w3.org/2000/svg" viewBox="0 0 1000 500">
  <style>
    .land { fill: #EAEAEA; stroke: #D0D0D0; stroke-width: 0.5; }
  </style>
  <g class="land">
    <!-- North America -->
    <path d="M165,58 L160,65 L150,75 L145,90 L140,100 L135,110 L130,120 L135,130 L140,135 L150,138 L160,140 L165,145 L170,150 L175,155 L180,160 L185,165 L190,170 L195,175 L200,180 L205,185 L210,190 L215,195 L220,200 L225,205 L230,210 L235,215 L240,220 L245,225 L250,230 L255,235 L260,240 L265,245 L270,250 L275,255 L280,260 L275,265 L270,270 L265,275 L260,280 L255,285 L250,290 L245,295 L240,300 L235,305 L230,310 L225,315 L220,320 L215,325 L210,330 L205,335 L200,340 L195,345 L190,350 L185,355 L180,360 L175,365 L170,370 L165,375 L160,380 L155,385 L150,390 L145,395 L140,400 L135,405 L130,410 L125,415 L120,420 L115,425 L110,430 L105,435 L100,440 L95,445 L90,450 L85,455 L80,460 L75,465 L70,470 L65,475 L60,480 L55,485 L50,490 L45,495 L40,500"/>
    
    <!-- Real map paths representing world continents -->
    <path d="M250,150 L260,145 L270,140 L280,135 L290,130 L300,125 L310,120 L320,115 L330,110 L340,105 L350,100 L360,95 L370,90 L380,85 L390,80 L400,75 L410,70 L420,65 L430,60 L440,55 L450,50"/>
    
    <!-- Accurate simplified world map -->
    <path d="M150,80 Q180,70 220,85 L240,120 Q230,150 210,180 L180,200 Q150,190 140,170 Z M220,85 Q250,80 280,95 L300,130 Q290,160 270,190 L240,200 Q230,170 240,120 Z M280,250 Q290,280 285,320 L270,380 Q250,420 230,440 L220,410 Q225,370 235,330 Z M480,100 Q510,95 540,105 L550,130 Q545,150 530,160 L500,155 Q485,140 480,120 Z M490,180 Q520,200 530,240 L525,300 Q510,350 490,380 L470,360 Q475,310 480,260 Z M600,80 Q680,70 760,90 L820,120 Q840,150 850,180 L870,200 Q860,230 840,250 L780,240 Q720,220 680,200 L640,170 Q610,140 600,110 Z M850,380 Q890,375 920,390 L930,420 Q920,445 890,455 L860,450 Q850,430 850,410 Z"/>
  </g>
</svg>
