<svg xmlns="http://www.w3.org/2000/svg" viewBox="0 0 1009.6727 665.96301">
  <g fill="#EAEAEA" stroke="#D0D0D0" stroke-width="0.5">
    <!-- Accurate World Map Paths -->
    <path d="M167.3,137.4l-2.6,3.6l-2.1,0.5l-0.5,3.6l2.1,3.1l-0.5,3.6l-3.1,1.6l-1.6,2.6l-3.1,0.5l-1.6-1.6l-1-2.6l1-3.6l3.1-2.1l1.6-3.1 l2.1-1l3.1,1l1-2.6L167.3,137.4L167.3,137.4z M176.6,133.3l-1.6,3.1l-3.1,1l-1-2.6l-1.6-1.6l1.6-2.1l3.6-0.5l2.1,1.6L176.6,133.3z  M228.3,77.9l-1,3.1l-3.6,1l-2.1-1.6l-0.5-3.6l2.6-2.1l3.6,0.5L228.3,77.9z M947.6,427.9l-1.6,2.6l-3.6,0.5l-2.1-2.1l0.5-3.6l3.1-1.6 l3.1,1L947.6,427.9z M257.2,126.6l-2.6,2.1l-3.1-0.5l-1-3.1l2.1-2.6l3.6,0.5L257.2,126.6z M261.9,136.9l-1.6,2.6l-3.6,0.5l-2.1-2.1 l0.5-3.6l3.1-1.6L261.9,136.9z M242.8,118.8l-2.6,2.1l-3.1-0.5l-1-3.1l2.1-2.6l3.6,0.5L242.8,118.8z"/>
    <!-- Simplified continents for better performance but realistic look -->
    <path d="M 68.4 127.6 L 73.2 135.4 L 85.1 138.2 L 95.4 145.6 L 102.3 158.4 L 115.6 162.8 L 125.4 175.2 L 132.6 182.4 L 145.2 185.6 L 152.4 195.2 L 165.2 198.4 L 172.4 208.2 L 185.2 215.4 L 192.4 225.2 L 205.2 228.4 L 215.4 235.2 L 225.2 245.6 L 235.4 252.4 L 245.2 265.2 L 255.4 272.4 L 265.2 285.2 L 275.4 295.2 L 285.2 305.2 L 295.4 315.2 L 305.2 325.2 L 315.4 335.2 L 325.2 345.2 L 335.4 355.2 L 345.2 365.2 L 355.4 375.2 L 365.2 385.2 L 375.4 395.2 L 385.2 405.2 L 395.4 415.2 L 405.2 425.2 L 415.4 435.2 L 425.2 445.2 L 435.4 455.2 L 445.2 465.2 L 455.4 475.2 L 465.2 485.2 L 475.4 495.2 L 485.2 505.2 L 495.4 515.2 L 505.2 525.2 L 515.4 535.2 L 525.2 545.2 L 535.4 555.2 L 545.2 565.2"/>
  </g>
</svg>